<svg width="333" height="79" viewBox="0 0 333 79" fill="none" xmlns="http://www.w3.org/2000/svg">
<path d="M55.9486 10.2512H52.8136H55.9486ZM52.8136 10.2512H49.6787H52.8136ZM52.8136 10.2512V7.33569V10.2512ZM52.8136 10.2512V13.1666V10.2512Z" fill="#415A77"/>
<path d="M55.9486 10.2512H52.8136M52.8136 10.2512H49.6787M52.8136 10.2512V7.33569M52.8136 10.2512V13.1666" stroke="#415A77" stroke-width="3" stroke-linecap="round"/>
<path d="M46.1896 4.99784L45.378 5.7676C45.5881 5.99554 45.8819 6.12491 46.1896 6.12491C46.4974 6.12491 46.7912 5.99554 47.0013 5.7676L46.1896 4.99784ZM32.3388 17.1823C32.6564 17.715 33.3396 17.8856 33.8647 17.5635C34.3899 17.2413 34.5581 16.5484 34.2405 16.0158L32.3388 17.1823ZM38.096 20.922C37.6679 20.476 36.9643 20.4666 36.5247 20.9009C36.085 21.335 36.0756 22.0487 36.5038 22.4945L38.096 20.922ZM32.4846 10.6233C32.4846 6.25831 34.3628 3.55997 36.6865 2.63709C39.0051 1.71626 42.2491 2.37349 45.378 5.7676L47.0013 4.22807C43.4631 0.389927 39.299 -0.82126 35.8762 0.538114C32.4586 1.89545 30.2622 5.62595 30.2622 10.6233H32.4846ZM51.3914 26.618C53.6026 24.798 56.2519 22.3588 58.3577 19.6346C60.4422 16.9381 62.117 13.806 62.117 10.6232H59.8946C59.8946 13.0448 58.5918 15.6784 56.6088 18.2437C54.6473 20.7812 52.1392 23.0996 49.991 24.8677L51.3914 26.618ZM62.117 10.6232C62.117 5.62593 59.9207 1.89543 56.503 0.538114C53.0803 -0.82126 48.9161 0.389927 45.378 4.22807L47.0013 5.7676C50.1301 2.37349 53.3741 1.71624 55.6927 2.63709C58.0164 3.55996 59.8946 6.25828 59.8946 10.6232H62.117ZM40.9879 26.618C42.8717 28.1686 44.178 29.3064 46.1896 29.3064V27.0523C45.1186 27.0523 44.4515 26.5659 42.3883 24.8677L40.9879 26.618ZM49.991 24.8677C47.9277 26.5659 47.2607 27.0523 46.1896 27.0523V29.3064C48.2012 29.3064 49.5076 28.1686 51.3914 26.618L49.991 24.8677ZM34.2405 16.0158C33.1338 14.1597 32.4846 12.3327 32.4846 10.6233H30.2622C30.2622 12.8958 31.1163 15.1322 32.3388 17.1823L34.2405 16.0158ZM42.3883 24.8677C41.0296 23.7494 39.5207 22.406 38.096 20.922L36.5038 22.4945C38.0044 24.0576 39.5815 25.4606 40.9879 26.618L42.3883 24.8677Z" fill="#415A77"/>
<path d="M55.9951 37.2481C53.8251 36.8873 48.8305 36.8477 44.6252 37.764C44.3558 37.5861 44.0857 37.4021 43.8195 37.2384C43.0066 36.7406 42.2093 36.3196 41.4174 36.0023C40.6497 35.6969 39.8842 35.4865 39.0834 35.4443V35.4408C37.8838 35.3434 36.7193 35.3001 35.6485 35.3001C34.0184 35.3025 32.6277 35.3927 31.5972 35.5646H31.6013C31.4589 35.5864 31.3026 35.5996 31.1329 35.5996C30.2424 35.6103 29.0098 35.1871 27.8914 34.5762C27.1375 34.1721 26.2032 34.3861 25.7005 35.0788L13.4264 52.0054C13.0084 52.5814 12.9934 53.3619 13.3873 53.9559C13.6987 54.4226 13.9591 54.907 14.131 55.3918C14.3782 56.076 14.736 56.6977 15.149 57.3027C15.5625 57.905 16.0347 58.4895 16.5276 59.0475L16.7207 59.2325C16.7207 59.2325 17.6045 59.9613 19.0127 61.1205C18.6452 61.6473 18.4433 62.2726 18.4361 62.9316C18.4271 63.7998 18.7559 64.6224 19.3645 65.2441C19.9826 65.8754 20.8088 66.2229 21.6921 66.2229C22.3108 66.2229 22.9023 66.045 23.4176 65.719C23.0732 66.2384 22.882 66.8434 22.8747 67.4796C22.8651 68.3478 23.1951 69.1692 23.803 69.7897C24.4199 70.4222 25.2467 70.7697 26.1306 70.7697C26.8248 70.7697 27.482 70.5436 28.0365 70.1396C27.0276 71.4047 27.0823 73.2504 28.242 74.4374C28.859 75.0675 29.6851 75.415 30.5677 75.415H30.5683C31.4246 75.415 32.2339 75.0844 32.8495 74.4818L33.4513 73.8841C33.1994 74.346 33.049 74.8581 33.043 75.3982C33.034 76.2675 33.3629 77.0889 33.9713 77.7106C34.5888 78.3407 35.4155 78.6882 36.2988 78.6882C37.1543 78.6882 37.9629 78.3588 38.5841 77.7527L38.9504 77.3811C39.1337 77.5254 39.301 77.6552 39.4374 77.7611C39.5491 77.8453 39.6443 77.9175 39.7314 77.9801L39.8608 78.0715L40.0441 78.1847C40.7325 78.5622 41.3909 78.7258 41.9144 78.8412C42.1754 78.8953 42.399 78.9326 42.5649 78.9553L42.767 78.9819L42.8301 78.9879L42.8541 78.9903L42.8691 78.9928L42.8853 78.994L42.9071 78.9952C42.9269 78.9952 42.9172 78.9976 43.0217 79L43.145 78.9952C44.2918 78.911 45.3776 78.5165 46.2688 77.836C46.6233 77.5642 46.9337 77.2359 47.2116 76.8765C47.7605 77.0544 48.3418 77.1601 48.9467 77.1601C51.4003 77.1591 53.4652 75.5945 54.2649 73.418C54.3539 73.412 54.4423 73.4083 54.5299 73.3856C54.8414 73.4421 55.1571 73.483 55.4841 73.483C57.9187 73.4806 59.9791 71.9463 60.7921 69.7985C60.7976 69.7937 60.8029 69.7914 60.8083 69.7876L60.9993 69.8057C64.1445 69.8057 66.6903 67.2574 66.6915 64.1142C66.6934 63.2411 66.5726 62.2756 66.2401 61.2714C68.3986 59.3643 71.5618 56.418 72.1337 54.8187C72.4091 54.0491 73.9573 52.2034 74.4071 51.5743L62.2286 34.7788C60.6753 35.6583 57.6611 37.5271 55.9951 37.2481ZM63.275 64.1135C63.2733 65.3702 62.2565 66.3874 60.9997 66.3899C60.6883 66.3899 60.3973 66.3274 60.1262 66.2143C60.0992 66.2022 60.0709 66.1998 60.0438 66.1914L57.9334 63.624C57.3995 63.0059 56.4645 62.9362 55.8457 63.47C55.2265 64.0039 55.158 64.9396 55.6924 65.5588L57.7337 68.0467C57.6031 69.1783 56.6521 70.0646 55.4843 70.0658C54.9298 70.0646 54.4382 69.8675 54.0359 69.5367L52.0103 67.0665C51.4757 66.4485 50.5407 66.38 49.9221 66.9139C49.3027 67.4478 49.2347 68.3835 49.7686 69.0014L51.1798 70.7597C51.1774 70.869 51.1667 70.9785 51.1858 71.0881C51.2105 71.2264 51.2218 71.3512 51.2218 71.4667C51.2201 72.7246 50.2029 73.7407 48.9467 73.7431C48.6184 73.7431 48.3161 73.6674 48.0371 73.5448L45.5683 70.9497C44.9725 70.3893 44.0357 70.4183 43.4753 71.0146C42.9143 71.6099 42.9433 72.5478 43.5384 73.1069L44.6969 74.4658C44.5808 74.7148 44.4263 74.9397 44.1913 75.1223C43.89 75.3532 43.4758 75.5119 43.0045 75.5648C42.8669 75.5445 42.6798 75.5131 42.4573 75.4603C42.1814 75.3979 41.8903 75.2956 41.7394 75.2161C41.6872 75.1778 41.5537 75.0792 41.3607 74.9275C41.2512 74.8433 41.1269 74.7472 40.9886 74.6365C41.2386 73.5856 40.9693 72.4335 40.1582 71.6038C39.5407 70.9725 38.714 70.625 37.8307 70.625C37.334 70.625 36.8579 70.7476 36.4201 70.9606L36.4069 70.9497L36.4219 70.9328C37.0431 70.3244 37.3906 69.5115 37.4001 68.641C37.409 67.7715 37.079 66.9501 36.4706 66.3297C35.8536 65.6995 35.0265 65.3508 34.1437 65.3508C33.4534 65.3508 32.7993 65.5743 32.2473 65.9737C32.6939 65.4109 32.9533 64.7278 32.9611 63.998C32.9707 63.1285 32.6407 62.3071 32.0326 61.6867C31.4152 61.0541 30.5885 60.7066 29.7052 60.7066C28.8497 60.7066 28.0409 61.0362 27.4253 61.6398L26.8764 62.1857C27.5534 60.9591 27.3972 59.3886 26.3689 58.3377C25.7508 57.7064 24.9241 57.3589 24.0408 57.3589C23.1853 57.3589 22.3765 57.6883 21.7597 58.292L21.3965 58.6564C21.1385 58.4434 20.8853 58.2354 20.6617 58.0514C19.8212 57.3611 19.2421 56.8826 19.0094 56.6901C18.6163 56.2416 18.2524 55.7906 17.968 55.3723C17.6626 54.9298 17.4462 54.5197 17.3488 54.2419C17.2056 53.8402 17.0349 53.4627 16.8492 53.1044L27.6393 38.2257C28.7061 38.6718 29.873 39.0072 31.1328 39.0159C31.4682 39.0159 31.8115 38.9917 32.1595 38.9341H32.1638C32.8823 38.8115 34.1629 38.7151 35.6482 38.7177C36.6277 38.7153 37.7051 38.7561 38.8066 38.8451L38.8818 38.85C39.1523 38.8572 39.6028 38.9534 40.1498 39.1747L40.2736 39.2312C35.6644 41.3127 29.1324 45.3173 26.9857 46.0338C24.5344 46.8504 24.3293 50.12 29.8448 50.732C35.3612 51.3465 40.2639 47.8713 41.4894 47.2605C42.369 46.8204 47.9576 47.3579 51.053 47.6969C52.4179 49.045 53.6144 50.2956 54.4868 51.2407L61.2853 59.5524L61.3153 59.5862C62.1865 60.5951 62.6592 61.4138 62.9273 62.1162C63.1927 62.8184 63.2733 63.4244 63.275 64.1135Z" fill="#415A77"/>
<path d="M88.0593 46.7372L71.6306 24.0794C71.2331 23.5298 70.4671 23.4096 69.9187 23.8064L62.6417 29.0831C62.0933 29.4799 61.9712 30.2472 62.3692 30.7956L78.7981 53.4534C79.1954 54.0018 79.9614 54.1244 80.5098 53.7276L87.788 48.4498C88.3354 48.0515 88.458 47.2855 88.0593 46.7372ZM82.4694 48.773C81.5566 49.4343 80.2784 49.23 79.6157 48.3172C78.9536 47.4046 79.1576 46.1275 80.0715 45.4649C80.9847 44.8024 82.2619 45.0067 82.9244 45.9181C83.5865 46.8321 83.3826 48.1104 82.4694 48.773Z" fill="#415A77"/>
<path d="M25.6529 29.083L18.3746 23.8062C17.8274 23.4094 17.0608 23.5296 16.6628 24.0792L0.233459 46.7373C-0.164553 47.2856 -0.0407346 48.0517 0.506445 48.4497L7.78344 53.7275C8.33183 54.1243 9.09767 54.0017 9.49448 53.4533L25.924 30.7954C26.322 30.247 26.1999 29.4798 25.6529 29.083ZM20.7894 31.6132C20.1273 32.5259 18.8497 32.7303 17.9364 32.0677C17.0224 31.4064 16.8187 30.1268 17.4811 29.2154C18.143 28.3014 19.4208 28.0971 20.3341 28.7598C21.2486 29.4222 21.4507 30.6992 20.7894 31.6132Z" fill="#415A77"/>
<path d="M126.661 35.4658V39.8955H110.952V35.4658H126.661ZM112.49 23.1406V53H106.851V23.1406H112.49ZM130.845 23.1406V53H125.205V23.1406H130.845ZM146.144 53.4102C144.462 53.4102 142.951 53.1367 141.611 52.5898C140.271 52.043 139.13 51.2842 138.187 50.3135C137.257 49.3291 136.539 48.1875 136.033 46.8887C135.541 45.5762 135.295 44.168 135.295 42.6641V41.8438C135.295 40.1348 135.541 38.583 136.033 37.1885C136.525 35.7803 137.223 34.5703 138.125 33.5586C139.027 32.5469 140.107 31.7676 141.365 31.2207C142.623 30.6738 144.011 30.4004 145.528 30.4004C147.101 30.4004 148.488 30.667 149.691 31.2002C150.895 31.7197 151.899 32.458 152.706 33.415C153.513 34.3721 154.121 35.5205 154.531 36.8604C154.941 38.1865 155.146 39.6562 155.146 41.2695V43.5459H137.756V39.8135H149.814V39.4033C149.787 38.542 149.623 37.7559 149.322 37.0449C149.021 36.3203 148.557 35.7461 147.928 35.3223C147.299 34.8848 146.485 34.666 145.487 34.666C144.681 34.666 143.977 34.8438 143.375 35.1992C142.787 35.541 142.295 36.0332 141.898 36.6758C141.516 37.3047 141.229 38.0566 141.037 38.9316C140.846 39.8066 140.75 40.7773 140.75 41.8438V42.6641C140.75 43.5938 140.873 44.4551 141.119 45.248C141.379 46.041 141.755 46.7314 142.247 47.3193C142.753 47.8936 143.354 48.3447 144.052 48.6729C144.763 48.9873 145.569 49.1445 146.472 49.1445C147.606 49.1445 148.632 48.9258 149.548 48.4883C150.478 48.0371 151.284 47.374 151.968 46.499L154.695 49.3291C154.23 50.0127 153.602 50.6689 152.809 51.2979C152.029 51.9268 151.086 52.4395 149.979 52.8359C148.871 53.2188 147.593 53.4102 146.144 53.4102ZM170.999 48.2832V38.0498C170.999 37.2979 170.869 36.6484 170.609 36.1016C170.35 35.5547 169.953 35.1309 169.42 34.8301C168.887 34.5293 168.21 34.3789 167.39 34.3789C166.665 34.3789 166.029 34.502 165.482 34.748C164.949 34.9941 164.539 35.3428 164.252 35.7939C163.965 36.2314 163.821 36.7373 163.821 37.3115H158.387C158.387 36.3955 158.605 35.5273 159.043 34.707C159.48 33.873 160.103 33.1348 160.909 32.4922C161.729 31.8359 162.707 31.3232 163.842 30.9541C164.99 30.585 166.275 30.4004 167.697 30.4004C169.379 30.4004 170.876 30.6875 172.188 31.2617C173.515 31.8223 174.554 32.6699 175.306 33.8047C176.071 34.9395 176.454 36.3682 176.454 38.0908V47.7705C176.454 48.8779 176.522 49.8281 176.659 50.6211C176.81 51.4004 177.028 52.0771 177.315 52.6514V53H171.799C171.539 52.4395 171.341 51.7285 171.204 50.8672C171.067 49.9922 170.999 49.1309 170.999 48.2832ZM171.758 39.4854L171.799 42.7051H168.374C167.526 42.7051 166.781 42.7939 166.139 42.9717C165.496 43.1357 164.97 43.3818 164.56 43.71C164.149 44.0244 163.842 44.4072 163.637 44.8584C163.432 45.2959 163.329 45.7949 163.329 46.3555C163.329 46.9023 163.452 47.3945 163.698 47.832C163.958 48.2695 164.327 48.6182 164.806 48.8779C165.298 49.124 165.872 49.2471 166.528 49.2471C167.485 49.2471 168.319 49.0557 169.03 48.6729C169.741 48.2764 170.295 47.7979 170.691 47.2373C171.088 46.6768 171.3 46.1436 171.327 45.6377L172.886 47.9756C172.694 48.5361 172.407 49.1309 172.024 49.7598C171.642 50.3887 171.149 50.9766 170.548 51.5234C169.946 52.0703 169.222 52.5215 168.374 52.877C167.526 53.2324 166.542 53.4102 165.421 53.4102C163.985 53.4102 162.7 53.123 161.565 52.5488C160.431 51.9746 159.535 51.1885 158.879 50.1904C158.223 49.1924 157.895 48.0576 157.895 46.7861C157.895 45.6104 158.113 44.5713 158.551 43.6689C158.988 42.7666 159.638 42.0078 160.499 41.3926C161.36 40.7637 162.427 40.292 163.698 39.9775C164.983 39.6494 166.453 39.4854 168.107 39.4854H171.758ZM187.077 21.5V53H181.643V21.5H187.077ZM202.745 30.8105V34.707H190.03V30.8105H202.745ZM193.435 25.3555H198.869V46.6016C198.869 47.2578 198.958 47.7637 199.136 48.1191C199.313 48.4746 199.58 48.7139 199.936 48.8369C200.291 48.96 200.715 49.0215 201.207 49.0215C201.562 49.0215 201.891 49.001 202.191 48.96C202.492 48.9189 202.745 48.8779 202.95 48.8369L202.971 52.8975C202.52 53.0479 202.007 53.1709 201.433 53.2666C200.872 53.3623 200.236 53.4102 199.525 53.4102C198.309 53.4102 197.242 53.2051 196.326 52.7949C195.41 52.3711 194.699 51.6943 194.193 50.7646C193.688 49.8213 193.435 48.5771 193.435 47.0322V25.3555ZM211.666 21.5V53H206.231V21.5H211.666ZM210.805 41.1055H209.205C209.205 39.5605 209.41 38.1387 209.82 36.8398C210.23 35.541 210.812 34.4131 211.563 33.4561C212.315 32.4854 213.211 31.7334 214.25 31.2002C215.303 30.667 216.465 30.4004 217.736 30.4004C218.83 30.4004 219.821 30.5576 220.71 30.8721C221.612 31.1729 222.385 31.6582 223.027 32.3281C223.67 32.998 224.162 33.873 224.504 34.9531C224.859 36.0195 225.037 37.3184 225.037 38.8496V53H219.582V38.8086C219.582 37.7832 219.432 36.9766 219.131 36.3887C218.83 35.7871 218.399 35.3564 217.839 35.0967C217.292 34.8369 216.615 34.707 215.809 34.707C214.934 34.707 214.182 34.8779 213.553 35.2197C212.924 35.5479 212.404 36.0059 211.994 36.5938C211.598 37.1816 211.297 37.8584 211.092 38.624C210.9 39.3896 210.805 40.2168 210.805 41.1055ZM259.634 48.5703V53H244.622V48.5703H259.634ZM246.324 23.1406V53H240.685V23.1406H246.324ZM268.739 30.8105V53H263.305V30.8105H268.739ZM262.936 25.0068C262.936 24.2002 263.209 23.5303 263.756 22.9971C264.316 22.4639 265.068 22.1973 266.012 22.1973C266.955 22.1973 267.7 22.4639 268.247 22.9971C268.808 23.5303 269.088 24.2002 269.088 25.0068C269.088 25.7998 268.808 26.4629 268.247 26.9961C267.7 27.5293 266.955 27.7959 266.012 27.7959C265.068 27.7959 264.316 27.5293 263.756 26.9961C263.209 26.4629 262.936 25.7998 262.936 25.0068ZM279.219 35.5479V53H273.805V30.8105H278.891L279.219 35.5479ZM278.357 41.1055H276.758C276.771 39.4922 276.99 38.0293 277.414 36.7168C277.838 35.4043 278.433 34.2764 279.198 33.333C279.978 32.3896 280.9 31.665 281.967 31.1592C283.033 30.6533 284.223 30.4004 285.535 30.4004C286.602 30.4004 287.565 30.5508 288.427 30.8516C289.288 31.1523 290.026 31.6309 290.642 32.2871C291.271 32.9434 291.749 33.8047 292.077 34.8711C292.419 35.9238 292.59 37.2227 292.59 38.7676V53H287.135V38.7266C287.135 37.7148 286.984 36.915 286.684 36.3271C286.396 35.7393 285.973 35.3223 285.412 35.0762C284.865 34.8301 284.188 34.707 283.382 34.707C282.548 34.707 281.816 34.8779 281.188 35.2197C280.572 35.5479 280.053 36.0059 279.629 36.5938C279.219 37.1816 278.904 37.8584 278.686 38.624C278.467 39.3896 278.357 40.2168 278.357 41.1055ZM302.782 21.4795V53H297.368V21.4795H302.782ZM316.687 30.8105L307.027 41.6592L301.798 46.9707L300.075 42.7666L304.115 37.6807L310.145 30.8105H316.687ZM311.149 53L304.279 42.6641L307.889 39.1572L317.425 53H311.149Z" fill="#415A77"/>
<line x1="241.5" y1="61.5" x2="318.5" y2="61.5" stroke="#415A77" stroke-width="3" stroke-linecap="round" stroke-dasharray="7 7"/>
</svg>
